<?xml version="1.0" encoding="UTF-8" standalone="no"?><svg xmlns="http://www.w3.org/2000/svg" xmlns:xlink="http://www.w3.org/1999/xlink" fill="#000000" height="45.4" preserveAspectRatio="xMidYMid meet" version="1" viewBox="-0.7 -0.7 45.4 45.4" width="45.4" zoomAndPan="magnify"><g id="change1_1"><path d="M 34.535156 17.921875 L 19.714844 32.742188 C 19.21875 33.238281 18.414062 33.238281 17.917969 32.742188 L 10.585938 25.414062 C 10.089844 24.914062 10.089844 24.109375 10.585938 23.613281 L 12.742188 21.460938 C 13.238281 20.960938 14.042969 20.960938 14.539062 21.460938 L 18.816406 25.734375 L 30.582031 13.96875 C 31.078125 13.472656 31.882812 13.472656 32.378906 13.96875 L 34.535156 16.125 C 35.03125 16.621094 35.03125 17.425781 34.535156 17.921875 Z M 43.332031 24.347656 C 42.441406 22.910156 42.441406 21.089844 43.332031 19.652344 C 44.683594 17.460938 43.914062 14.585938 41.648438 13.367188 C 40.15625 12.566406 39.246094 10.992188 39.296875 9.300781 C 39.378906 6.726562 37.273438 4.621094 34.699219 4.703125 C 33.007812 4.753906 31.429688 3.84375 30.632812 2.351562 C 29.414062 0.0859375 26.535156 -0.683594 24.347656 0.667969 C 22.910156 1.558594 21.089844 1.558594 19.652344 0.667969 C 17.464844 -0.683594 14.585938 0.0859375 13.367188 2.351562 C 12.566406 3.84375 10.992188 4.753906 9.300781 4.703125 C 6.726562 4.621094 4.621094 6.726562 4.703125 9.300781 C 4.753906 10.992188 3.84375 12.566406 2.351562 13.367188 C 0.0859375 14.585938 -0.683594 17.464844 0.667969 19.652344 C 1.5625 21.089844 1.5625 22.910156 0.667969 24.347656 C -0.683594 26.535156 0.0859375 29.410156 2.351562 30.632812 C 3.84375 31.429688 4.753906 33.007812 4.703125 34.699219 C 4.621094 37.269531 6.726562 39.375 9.300781 39.300781 C 10.992188 39.246094 12.566406 40.15625 13.367188 41.648438 C 14.585938 43.914062 17.464844 44.6875 19.652344 43.332031 C 21.089844 42.4375 22.910156 42.4375 24.347656 43.332031 C 26.535156 44.6875 29.414062 43.914062 30.632812 41.648438 C 31.429688 40.15625 33.007812 39.246094 34.699219 39.300781 C 37.273438 39.375 39.378906 37.269531 39.296875 34.699219 C 39.246094 33.007812 40.15625 31.429688 41.648438 30.632812 C 43.914062 29.410156 44.683594 26.535156 43.332031 24.347656" fill="#ffffff"/></g></svg>