<?xml version="1.0" encoding="UTF-8" standalone="no"?><svg xmlns="http://www.w3.org/2000/svg" xmlns:xlink="http://www.w3.org/1999/xlink" data-name="Layer 1" fill="#ffffff" height="1744.6" preserveAspectRatio="xMidYMid meet" version="1" viewBox="127.7 128.6 1744.6 1744.6" width="1744.6" zoomAndPan="magnify"><g id="change1_1"><path d="M1397.2,128.64H602.8c-262,0-475.12,213.1-475.12,475.09V1398.2c0,262,213.13,475.09,475.12,475.09h794.4c262,0,475.12-213.1,475.12-475.09V603.73C1872.32,341.74,1659.19,128.64,1397.2,128.64Zm0,134.21c186.13,0,337.42,150.09,340.37,335.51h-296L1249.82,262.85Zm-301.93,0L1287,598.36H904.73L713,262.85Zm-534.39,4.24,189.3,331.27H262.43C265.15,427.24,394.62,287.8,560.88,267.09ZM1738.12,1398.2c0,187.94-152.95,340.88-340.92,340.88H602.8c-188,0-340.92-152.94-340.92-340.88V732.56H1738.12Zm-928.68,3.56v-387c0-66.85,74.34-106.87,130.14-70.07L1233,1138.2c50.29,33.17,50.29,107,0,140.12l-293.37,193.5C883.78,1508.63,809.44,1468.61,809.44,1401.76Z" fill="inherit"/></g></svg>