<?xml version="1.0" encoding="UTF-8" standalone="no"?><svg xmlns="http://www.w3.org/2000/svg" xmlns:xlink="http://www.w3.org/1999/xlink" fill="#ffffff" height="38.5" preserveAspectRatio="xMidYMid meet" version="1" viewBox="3.9 11.3 56.1 38.5" width="56.1" zoomAndPan="magnify"><g id="change1_1"><path d="M29.57001,31.87c5.52043,1.64138,11.5066-2.73418,11.4199-8.65012-.4922-11.91188-17.48816-11.91117-17.97991,.00016,.00002,4.10992,2.77999,7.58996,6.56001,8.64996Z"/></g><g id="change1_2"><path d="M46.48999,46.26996c-1.17999-6.91998-7.22998-12.19995-14.48999-12.19995-8.19981-.06037-15.06427,7.00235-14.65008,15.01999,.13006,.39999,.51007,.67001,.94006,.67001h27.42004c1.64959-.13908,.83373-2.44099,.77997-3.49005Z"/></g><g id="change1_3"><path d="M49.45001,34.84998c3.62,0,6.57001-2.95001,6.57001-6.57001-.32981-8.69063-12.81152-8.68828-13.14002,.00008,0,3.61991,2.95002,6.56992,6.57002,6.56992Z"/></g><g id="change1_4"><path d="M49.45001,35.54999c-1.85999,0-3.70001,.48999-5.29999,1.41998,.46997,.48999,.89996,1.02002,1.29999,1.57001,1.80387,2.43424,2.93047,5.45931,3.14995,8.54999,.00001,0,10.40004,0,10.40004,0,.54999,0,1-.44995,1-1,0-5.81-4.72998-10.53998-10.54999-10.53998Z"/></g><g id="change1_5"><path d="M14.54999,34.84998c3.62,0,6.57001-2.95001,6.57001-6.57001-.32981-8.69063-12.81152-8.68828-13.14002,.00008,0,3.61991,2.95002,6.56992,6.57002,6.56992Z"/></g><g id="change1_6"><path d="M19.84998,36.96997c-6.81865-4.11105-15.99218,1.14506-15.84986,9.12017-.00012,.54987,.44989,.99982,.99988,.99982H15.40002c.27033-3.79502,1.87998-7.39662,4.44995-10.12Z"/></g></svg>