<?xml version="1.0" encoding="UTF-8" standalone="no"?><svg xmlns="http://www.w3.org/2000/svg" xmlns:xlink="http://www.w3.org/1999/xlink" data-name="Circular Glyph" fill="#ffffff" height="64" preserveAspectRatio="xMidYMid meet" version="1" viewBox="0.0 0.0 64.0 64.0" width="64" zoomAndPan="magnify"><g id="change1_1"><path d="M32,0A32,32,0,1,0,64,32,32.004,32.004,0,0,0,32,0ZM52.91,26.66,48.04,45.42a2.54546,2.54546,0,0,1-2.46,1.9H18.42a2.534,2.534,0,0,1-2.45-1.9L11.09,26.66a2.5411,2.5411,0,0,1,3.37-3.02l8.08,3.11a.40392.40392,0,0,0,.47-.12L30,17.66a2.53085,2.53085,0,0,1,4,0l7,8.97a.40018.40018,0,0,0,.47.12l8.08-3.11A2.55863,2.55863,0,0,1,52.91,26.66Z"/></g></svg>